<svg version="1.1" id="Layer_1" xmlns="http://www.w3.org/2000/svg" xmlns:xlink="http://www.w3.org/1999/xlink" x="0px" y="0px"
	 width="100%" viewBox="0 0 1920 1080" enable-background="new 0 0 1920 1080" xml:space="preserve">
<path fill="#000000" opacity="1.000000" stroke="none" 
	d="
M1081.000000,1081.000000 
	C720.666748,1081.000000 360.833466,1081.000000 1.000145,1081.000000 
	C1.000097,721.000122 1.000097,361.000244 1.000048,1.000290 
	C640.999756,1.000193 1280.999512,1.000193 1920.999512,1.000097 
	C1920.999634,360.999664 1920.999634,720.999329 1920.999756,1080.999512 
	C1641.166626,1081.000000 1361.333374,1081.000000 1081.000000,1081.000000 
M559.777405,314.002228 
	C558.646912,314.666840 557.524414,315.345398 556.384705,315.993805 
	C550.179260,319.524231 543.615723,322.565491 537.900940,326.762909 
	C534.741333,329.083649 533.624817,334.220001 530.443115,336.466797 
	C527.362244,338.642334 526.615967,341.565216 524.989075,344.274139 
	C523.992432,345.933563 522.908325,347.540405 521.863464,349.170868 
	C521.000000,341.688690 521.000916,334.554688 520.999695,327.420685 
	C520.998535,320.103210 517.127380,316.027802 510.024109,316.010193 
	C496.024506,315.975525 482.024719,315.976440 468.025116,316.009705 
	C460.751343,316.026978 457.000732,319.900970 457.000641,327.266754 
	C456.999603,408.098236 457.000031,488.929688 457.000061,569.761169 
	C457.000061,570.761169 456.632446,571.976440 457.068359,572.721680 
	C458.510376,575.186829 458.910767,578.943542 462.774414,578.960938 
	C481.759766,579.046631 500.745697,578.999817 519.701050,578.999817 
	C520.874573,576.408020 522.803162,574.086182 522.872375,571.710205 
	C524.308777,522.419067 520.763672,473.080231 524.719788,423.778900 
	C525.544067,413.506317 525.960999,403.346985 529.100525,393.517487 
	C529.777039,391.399414 531.327820,389.459351 532.805847,387.717194 
	C537.433228,382.262695 542.427307,378.438080 550.064026,376.294189 
	C556.752319,374.416626 560.895081,377.750702 566.155579,378.566254 
	C567.868896,378.831909 569.661499,380.249969 570.899597,381.611969 
	C575.012634,386.136475 578.615967,390.834961 579.329773,397.420258 
	C579.875305,402.453430 582.808350,407.339325 582.833740,412.300201 
	C583.101990,464.797607 582.999512,517.296936 583.000671,569.795715 
	C583.000854,577.269409 584.753723,578.999878 592.304016,578.999939 
	C608.636963,579.000061 624.969971,579.000305 641.302917,578.999878 
	C647.905518,578.999695 650.998718,575.817322 650.998962,569.004883 
	C651.000977,522.672607 651.033447,476.340332 650.975708,430.008148 
	C650.961853,418.885803 651.428040,408.011841 654.693909,397.102692 
	C656.858521,389.872101 662.068848,385.968475 666.696899,381.322906 
	C668.924072,379.087311 672.588013,377.704865 675.801941,377.191223 
	C679.097290,376.664551 682.492737,376.300354 686.104553,376.638885 
	C691.568909,377.151001 695.372070,379.910095 699.256104,382.741302 
	C705.824829,387.529480 707.850098,394.749390 707.945984,402.440369 
	C708.130981,417.271027 708.000000,432.105682 708.000000,446.938660 
	C708.000000,487.771057 707.997192,528.603455 708.002808,569.435852 
	C708.003723,575.833862 711.207397,578.999634 717.628052,578.999878 
	C734.460999,579.000366 751.293945,579.002502 768.126892,578.998535 
	C773.695801,578.997253 776.998291,575.715515 776.998474,570.176636 
	C777.000854,505.011475 777.000122,439.846313 776.998718,374.681152 
	C776.998718,373.514709 777.233826,372.276703 776.928467,371.193512 
	C775.021179,364.428131 772.752869,357.755920 771.076721,350.936676 
	C769.708679,345.370758 768.781128,339.776428 762.878052,336.949646 
	C762.517334,336.776917 762.184937,336.332458 762.045837,335.941040 
	C759.430786,328.583282 753.497070,324.981018 746.826721,321.926117 
	C742.013489,319.721802 737.910339,316.199005 732.300293,315.454407 
	C728.562012,314.958282 725.039917,312.382843 721.336548,312.163361 
	C712.700500,311.651428 704.013184,311.978851 695.346985,312.026855 
	C694.260010,312.032867 693.107605,312.234375 692.100708,312.635040 
	C687.757019,314.363647 683.596191,316.798859 679.105103,317.849152 
	C673.185791,319.233459 668.415100,322.944489 664.238770,326.351379 
	C656.211304,332.899963 649.091431,340.781403 644.146912,351.187927 
	C641.724670,347.115143 640.147156,343.352600 637.607727,340.424286 
	C632.338074,334.347656 626.875977,328.360779 620.910217,322.983612 
	C612.690430,315.574707 602.518982,312.319946 591.582947,312.078430 
	C581.253418,311.850281 570.832214,311.080200 559.777405,314.002228 
M911.420715,365.932159 
	C912.051025,365.294067 912.669312,364.115936 913.313599,364.101562 
	C919.642761,363.960083 925.990967,363.761169 932.301392,364.131317 
	C934.875854,364.282318 937.652954,365.345551 939.852356,366.752655 
	C948.232483,372.114044 953.181396,380.264038 954.753540,389.726349 
	C955.953003,396.945526 954.991821,404.523651 954.991821,410.905548 
	C949.549133,412.054626 945.008484,413.293762 940.384766,413.923096 
	C933.614929,414.844635 926.784302,415.316559 919.981995,416.003632 
	C913.510376,416.657318 907.041870,417.341553 900.571838,418.010742 
	C900.406372,418.027832 900.229919,417.993805 900.073730,418.037628 
	C892.999329,420.022186 885.936523,422.048767 878.850037,423.988800 
	C874.832520,425.088684 870.354736,425.280975 866.821960,427.223511 
	C858.369812,431.871063 850.265564,437.178375 842.209106,442.504120 
	C839.245117,444.463501 836.277649,446.845459 834.251282,449.701355 
	C830.627319,454.808960 828.157654,460.754364 824.403625,465.746582 
	C818.743103,473.274109 816.987427,482.499542 816.488281,490.833252 
	C815.478882,507.684570 814.412903,524.756042 820.600891,541.486633 
	C823.387512,549.021057 828.178284,554.994202 832.378601,561.041504 
	C836.749084,567.333862 842.890991,573.830933 851.888184,575.101929 
	C853.878906,575.383179 855.717529,576.646545 857.663940,577.353882 
	C862.923828,579.265564 868.186035,582.644653 873.479736,582.707336 
	C888.105164,582.880493 902.747192,581.662109 917.381897,580.975952 
	C917.858215,580.953613 918.343811,580.782349 918.793884,580.602478 
	C921.768677,579.413696 924.730164,578.191772 927.705078,577.003235 
	C932.441956,575.110596 937.828125,574.104004 941.793030,571.172058 
	C949.994202,565.107300 957.440491,558.021729 965.581604,551.025757 
	C967.294495,553.810486 968.887451,556.992798 971.029785,559.747925 
	C974.469543,564.171875 977.993103,568.600891 981.998718,572.495544 
	C986.235535,576.615051 990.367554,581.343506 997.241028,581.021973 
	C1000.950378,580.848389 1004.337708,581.543396 1007.082764,577.215942 
	C1009.120300,574.004089 1013.696960,572.460266 1016.965271,569.943237 
	C1018.238281,568.962708 1018.839172,567.137390 1020.068298,566.066650 
	C1023.958069,562.678223 1027.992920,559.455627 1031.987183,556.187988 
	C1033.322510,555.095459 1034.552612,553.663452 1036.093750,553.071899 
	C1041.054077,551.168030 1045.789917,544.501526 1044.902222,539.366211 
	C1044.308350,535.930725 1043.705078,531.781128 1041.505249,529.484375 
	C1036.556763,524.317871 1032.937378,518.841919 1029.912231,512.238953 
	C1027.617310,507.229828 1025.455566,502.069641 1025.247925,497.106476 
	C1023.548645,456.502441 1027.583740,415.786346 1022.965698,375.224243 
	C1022.567383,371.725891 1021.833435,368.246613 1020.997437,364.821442 
	C1019.483887,358.620605 1018.572571,352.585358 1014.423279,346.851074 
	C1010.454712,341.366516 1006.861023,335.400665 1001.746033,331.191589 
	C996.713928,327.050812 990.408936,324.266632 984.634766,321.098602 
	C977.367004,317.111084 969.769348,314.256927 962.202759,312.382477 
	C952.025085,309.861145 941.202393,309.752228 930.625793,309.138611 
	C927.038879,308.930542 923.359802,310.889679 919.720581,310.898163 
	C907.601990,310.926483 895.573608,311.116577 884.162048,315.985443 
	C879.305542,318.057495 874.249207,319.712250 869.544373,322.075623 
	C863.929260,324.896271 858.235474,327.797821 853.246460,331.554840 
	C848.997131,334.754791 845.856812,339.384338 841.945801,343.085480 
	C833.994263,350.610382 830.070801,360.249664 826.985229,370.396088 
	C826.112366,373.266479 825.590576,376.358429 824.142273,378.915039 
	C821.149841,384.197327 824.501221,394.677399 830.267456,395.880920 
	C835.644531,397.003174 841.171692,397.603851 846.662903,397.937622 
	C855.900146,398.499023 865.161560,398.659912 874.411865,399.013275 
	C875.219055,399.044098 876.133240,399.044922 876.803955,399.412903 
	C880.504333,401.443054 887.992126,397.547577 887.938416,393.310303 
	C887.849426,386.293976 892.497070,381.013458 895.653748,375.836731 
	C898.457031,371.239441 905.416626,369.176575 911.420715,365.932159 
M219.912643,566.452393 
	C222.477509,571.028442 226.483704,573.574951 231.432556,575.047668 
	C235.551636,576.273438 239.527405,577.972778 243.618149,579.304077 
	C247.717331,580.638123 251.930283,582.954407 256.006042,582.781494 
	C268.808899,582.238647 281.768677,585.259644 294.449310,581.084656 
	C298.232544,579.839050 302.850677,580.522949 306.202637,578.698975 
	C313.347992,574.810791 321.527679,573.198303 327.560272,566.558289 
	C332.905762,560.674561 340.402618,556.745483 346.281067,552.442932 
	C348.556152,555.284851 351.237762,558.646301 353.933868,561.996094 
	C354.937622,563.243286 355.996979,564.446045 356.993042,565.699158 
	C359.285797,568.583740 361.316956,571.726990 363.912445,574.303650 
	C365.856964,576.234131 368.694702,577.233154 370.816376,579.024048 
	C374.300964,581.965332 382.467499,583.150513 385.822784,580.535522 
	C390.232117,577.098999 394.480927,573.439270 398.626587,569.685303 
	C405.827667,563.164673 412.830109,556.424194 420.054291,549.929871 
	C422.915253,547.357971 425.972198,545.006348 424.960724,540.604919 
	C424.105957,536.885315 423.844330,532.507690 421.657288,529.731140 
	C417.818878,524.858093 414.374237,520.019104 411.385651,514.482178 
	C407.543549,507.364014 405.335144,499.835205 405.233063,492.326416 
	C404.723389,454.837372 405.000580,417.337677 404.997772,379.841705 
	C404.997650,378.509796 405.262268,377.088745 404.895630,375.860931 
	C403.023163,369.590179 401.242584,363.271240 398.927948,357.159241 
	C396.724915,351.342133 395.281586,344.150024 391.001648,340.484283 
	C385.748993,335.985321 381.880280,330.208649 375.619232,326.320282 
	C365.094757,319.784180 353.868439,315.384521 342.290222,312.325592 
	C332.643799,309.777069 322.281464,309.675507 312.201843,309.150940 
	C307.777222,308.920715 303.286133,310.689117 298.792053,310.929260 
	C287.917847,311.510315 277.062286,310.571899 266.622101,315.734100 
	C260.395569,318.812866 253.546997,320.823975 247.043335,323.558105 
	C238.111801,327.312836 231.715805,333.641327 224.863434,339.672180 
	C222.297791,341.930237 220.689774,345.266663 218.600281,348.078064 
	C216.429245,350.999146 213.567032,353.601257 212.148895,356.842468 
	C209.919571,361.937744 208.651703,367.453094 206.967636,372.787750 
	C206.107697,375.511719 205.607162,378.434143 204.273697,380.905029 
	C201.923218,385.260468 205.824738,395.280334 210.675262,395.929382 
	C217.447739,396.835632 224.264175,397.495270 231.082367,397.956177 
	C238.821182,398.479370 246.582657,398.667725 254.334412,398.998474 
	C254.833649,399.019775 255.477859,398.811981 255.812378,399.050476 
	C260.879150,402.663361 264.153442,398.527069 266.950623,395.772125 
	C268.838989,393.912170 268.998016,390.325470 270.011169,387.540497 
	C271.293182,384.016418 271.684906,379.396667 274.180725,377.240875 
	C280.014221,372.202179 286.392426,366.194641 293.452393,364.616577 
	C300.789124,362.976624 309.336395,362.140198 317.268890,365.856781 
	C326.645905,370.250183 333.126465,377.144073 334.732666,387.049347 
	C336.038940,395.104767 334.998108,403.540771 334.998108,410.921570 
	C329.866302,412.055115 325.511932,413.425385 321.061890,413.901917 
	C314.758698,414.576843 308.489075,414.439941 302.086456,415.600525 
	C293.872437,417.089417 285.455872,417.410034 277.311646,419.899261 
	C270.432678,422.001709 263.311340,423.319275 256.281128,424.912994 
	C254.575195,425.299683 252.608398,424.994781 251.102127,425.717590 
	C246.410309,427.969055 241.829849,430.469666 237.305359,433.047729 
	C233.194672,435.390045 228.922531,437.597015 225.259949,440.534851 
	C221.796432,443.312958 218.831741,446.800751 216.015579,450.274689 
	C212.868500,454.156860 209.815353,458.188019 207.304214,462.494232 
	C204.221344,467.780914 201.003357,473.189484 199.203903,478.968872 
	C197.302689,485.074890 196.404251,491.654144 196.135162,498.071442 
	C195.674973,509.046234 195.418564,520.093079 198.371780,530.890259 
	C198.881393,532.753479 198.318542,535.011963 199.111908,536.677917 
	C202.580444,543.961365 205.668839,551.600342 210.354858,558.049805 
	C212.441803,560.922119 213.749939,566.289673 219.912643,566.452393 
M1597.000000,471.500000 
	C1598.147949,455.884247 1595.848511,440.279205 1598.505737,424.508118 
	C1599.982300,415.744446 1601.487305,407.048584 1603.916138,398.535492 
	C1604.953247,394.900238 1606.328857,390.946747 1608.765015,388.224457 
	C1612.259277,384.319519 1616.586548,380.946991 1621.092041,378.233643 
	C1624.177979,376.375305 1628.127441,375.481079 1631.775391,375.180542 
	C1634.499512,374.956085 1637.474487,376.081177 1640.118896,377.147766 
	C1642.073975,377.936279 1643.652466,379.633545 1645.440796,380.864838 
	C1650.989746,384.685272 1652.086548,390.722839 1654.284668,396.580536 
	C1657.489014,405.119446 1658.026978,413.660919 1658.019653,422.492157 
	C1657.978882,471.819305 1657.998291,521.146545 1658.002563,570.473755 
	C1658.002930,575.651184 1663.348389,580.994812 1668.525391,580.997314 
	C1684.023438,581.004761 1699.521606,581.000183 1715.019653,580.999817 
	C1723.952026,580.999634 1725.998779,578.930054 1725.999023,569.867737 
	C1726.000977,515.374512 1726.008911,460.881317 1725.994751,406.388092 
	C1725.990601,390.525146 1725.894897,374.788452 1721.350098,359.216125 
	C1719.653931,353.404419 1717.257446,348.131958 1715.043457,342.648834 
	C1713.922241,339.872314 1711.570557,338.060150 1710.276245,335.782654 
	C1707.494385,330.887390 1703.923218,327.276642 1699.154053,324.608215 
	C1694.787598,322.165009 1690.305786,319.908203 1686.067017,317.261292 
	C1681.122192,314.173462 1675.608887,312.047363 1670.062866,312.204926 
	C1659.260010,312.511932 1648.492188,310.789581 1637.556641,313.660461 
	C1629.842285,315.685699 1623.137451,318.932648 1617.005005,323.404297 
	C1606.602905,330.989471 1600.294678,342.048035 1593.420654,353.895935 
	C1593.227783,351.591583 1593.021362,350.231995 1593.015381,348.871582 
	C1592.982788,341.539307 1593.004395,334.206818 1592.998779,326.874390 
	C1592.993896,320.472900 1590.583008,318.000275 1584.362915,318.000122 
	C1568.864868,317.999725 1553.366699,317.999725 1537.868652,318.000122 
	C1531.333984,318.000275 1528.012695,321.251862 1528.011230,327.879486 
	C1527.993896,408.702759 1527.994263,489.526031 1528.052734,570.349243 
	C1528.053711,571.590332 1528.829712,572.837219 1529.274170,574.070496 
	C1531.453003,580.114746 1537.272827,580.400879 1541.965454,580.779419 
	C1551.237305,581.527344 1560.620605,581.246094 1569.941162,580.918152 
	C1576.755249,580.678406 1583.741943,582.535217 1590.379761,579.077515 
	C1593.902344,577.242554 1597.019653,575.601624 1597.015503,570.987732 
	C1596.986206,538.158508 1597.000000,505.329254 1597.000000,471.500000 
M1028.894775,684.417053 
	C1025.158325,685.281860 1021.433838,686.202698 1017.683044,686.999878 
	C1009.633667,688.710876 1001.533386,690.198792 993.524292,692.077637 
	C985.968872,693.850037 978.607300,696.829285 970.973083,697.792358 
	C960.707336,699.087524 950.540833,700.437622 940.433228,702.817810 
	C931.559814,704.907349 922.378174,705.709351 913.318359,706.977783 
	C907.804932,707.749695 902.275269,708.443604 896.733398,708.965149 
	C889.221802,709.672119 881.648254,709.893127 874.148926,710.506836 
	C855.748657,712.012817 837.141602,711.115967 818.619385,710.972656 
	C800.114502,710.829407 781.590698,711.862610 763.131531,709.117554 
	C754.050476,707.767090 744.776978,707.750305 735.607300,706.939819 
	C730.592773,706.496704 725.613464,705.656433 720.617920,704.997803 
	C719.967102,704.911987 719.296570,704.911560 718.665344,704.752014 
	C713.773315,703.515747 708.915710,702.128601 703.993042,701.032654 
	C700.179016,700.183594 696.299622,699.592041 692.425903,699.054138 
	C684.655762,697.975098 676.863770,697.053223 669.092285,695.983459 
	C664.726807,695.382507 660.313599,694.904114 656.047180,693.859009 
	C648.948914,692.120117 641.999023,689.774536 634.898804,688.044800 
	C627.049744,686.132690 619.034546,684.885376 611.218201,682.860535 
	C604.930847,681.231812 598.875671,678.727722 592.637085,676.884277 
	C586.416626,675.046143 579.986572,673.872925 573.848572,671.811890 
	C567.002502,669.513184 560.416931,666.450317 553.653198,663.891235 
	C547.256836,661.471313 540.736511,659.378235 534.346375,656.942993 
	C529.575195,655.124634 524.926819,652.984741 520.219482,650.998230 
	C515.049500,648.816467 509.841400,646.721497 504.711975,644.448608 
	C500.335968,642.509583 496.083374,640.291870 491.707794,638.351807 
	C489.022827,637.161438 486.111481,636.463562 483.473419,635.189148 
	C478.060059,632.573975 472.811829,629.617371 467.403839,626.990356 
	C460.971710,623.865784 453.638245,621.970032 448.149170,617.681091 
	C440.334259,611.574829 430.771606,609.155579 422.834198,603.600952 
	C420.410492,601.904846 413.504486,603.657837 412.085022,606.092712 
	C408.317963,612.554565 411.447449,621.135010 418.606873,624.013977 
	C419.654388,624.435242 421.087402,624.660706 421.625122,625.459412 
	C424.528595,629.772217 428.030060,632.959290 432.660583,635.761108 
	C439.932373,640.161133 446.538452,645.860229 452.797363,651.685181 
	C460.704865,659.044434 469.739624,664.651245 478.705078,670.473389 
	C486.263031,675.381531 493.526825,680.740906 500.971344,685.826599 
	C502.962036,687.186584 505.099304,688.348694 507.236115,689.474915 
	C513.353760,692.699097 519.525757,695.820374 525.632385,699.065002 
	C527.603821,700.112549 529.399780,701.485413 531.343506,702.590820 
	C536.882324,705.740723 542.346191,709.050659 548.048218,711.876709 
	C553.183716,714.421936 558.690796,716.211914 563.857849,718.700684 
	C568.933716,721.145508 573.164246,725.528687 579.453186,725.089050 
	C579.998596,725.050903 580.545166,726.076538 581.198059,726.371277 
	C589.097534,729.937500 596.879395,733.822754 604.971436,736.886719 
	C612.528076,739.747986 620.440491,741.659424 628.157654,744.110718 
	C635.106140,746.317871 641.937500,748.916199 648.941223,750.920288 
	C654.879883,752.619507 661.044312,753.518982 667.011292,755.132996 
	C673.415283,756.865356 679.611633,759.435669 686.067810,760.888428 
	C695.216797,762.947083 704.495239,764.480713 713.767212,765.924866 
	C720.010376,766.897217 726.337341,767.333618 732.628540,767.992859 
	C733.452942,768.079224 734.305908,767.965393 735.115051,768.112610 
	C742.109985,769.384644 749.053345,771.395386 756.097534,771.844238 
	C769.493286,772.697754 782.944031,772.838257 796.374695,772.958130 
	C815.034668,773.124756 833.749390,773.820679 852.335693,772.638489 
	C861.063843,772.083313 870.009399,773.543945 878.809326,770.301819 
	C884.617981,768.161682 891.415710,768.765930 897.748047,767.963745 
	C901.297974,767.514099 904.798462,766.682068 908.327576,766.058167 
	C916.041687,764.694458 923.759033,763.349426 931.476440,762.004700 
	C941.118469,760.324646 950.772644,758.711121 960.397766,756.939392 
	C963.109741,756.440247 965.749390,755.524658 968.402771,754.734924 
	C974.757385,752.843567 981.069092,750.799744 987.458679,749.036926 
	C992.162292,747.739136 997.090454,747.167297 1001.691772,745.604187 
	C1011.395630,742.307800 1020.959534,738.597046 1030.564087,735.011353 
	C1037.942993,732.256470 1045.396606,729.667969 1052.633057,726.574890 
	C1060.261230,723.314209 1067.691772,719.585938 1075.169067,715.979797 
	C1080.897461,713.217224 1086.678711,710.532654 1092.230469,707.443481 
	C1099.904175,703.173645 1107.392456,698.570251 1114.943970,694.082336 
	C1119.731445,691.237000 1124.538696,688.419678 1129.246582,685.446655 
	C1133.582886,682.708252 1137.858643,679.864075 1142.053955,676.914246 
	C1148.979248,672.044617 1154.940918,666.852783 1153.170898,656.807861 
	C1152.348877,652.142273 1149.470459,648.991638 1146.102905,648.367615 
	C1137.980713,646.862671 1129.813232,647.963379 1122.086548,651.570312 
	C1114.873169,654.937439 1107.567993,658.156555 1100.122437,660.961121 
	C1094.496460,663.080261 1088.193726,663.664246 1082.896973,666.331238 
	C1075.557251,670.026733 1068.035278,672.594421 1060.106445,674.572388 
	C1049.683105,677.172668 1039.451416,680.540527 1028.894775,684.417053 
M1433.120728,574.975342 
	C1438.389282,571.747986 1444.171509,569.119751 1448.803101,565.149292 
	C1455.333740,559.550903 1461.662109,553.454468 1466.860352,546.642578 
	C1471.436279,540.646057 1476.635498,535.050110 1478.937744,527.133362 
	C1481.338989,518.876099 1486.817261,511.559998 1489.799438,503.411255 
	C1492.369019,496.390167 1493.616455,488.827972 1494.897217,481.409821 
	C1496.001587,475.013306 1497.094727,468.451172 1496.830200,462.018311 
	C1496.371948,450.879425 1498.812012,439.676636 1495.216919,428.528168 
	C1493.521484,423.270294 1495.748291,417.274872 1493.199097,411.599426 
	C1491.341675,407.463776 1491.561523,402.442963 1490.391479,397.937256 
	C1489.230225,393.465363 1487.493408,389.142487 1485.999878,384.757355 
	C1484.610840,380.679321 1483.382812,376.533936 1481.743286,372.558716 
	C1480.876709,370.457581 1478.801514,368.814423 1478.104126,366.691162 
	C1475.425049,358.534332 1469.523438,352.530090 1464.494385,346.003754 
	C1461.506226,342.125824 1457.577271,338.947754 1453.927734,335.612183 
	C1450.677856,332.642090 1447.329468,329.758270 1443.828735,327.093903 
	C1442.082764,325.764954 1439.941284,324.914490 1437.902832,324.020294 
	C1434.383423,322.476410 1430.336426,321.696960 1427.346924,319.472961 
	C1420.770874,314.580688 1412.579590,312.833008 1405.513794,312.521149 
	C1389.116455,311.797485 1372.235718,309.322205 1356.228516,315.992035 
	C1351.353516,318.023285 1346.402222,319.879700 1341.582397,322.032227 
	C1337.657104,323.785217 1333.911621,325.936279 1330.021729,327.773682 
	C1325.158936,330.070618 1322.499878,334.885986 1317.649414,337.647339 
	C1312.154297,340.775726 1308.258789,346.933533 1304.121948,352.135376 
	C1302.060425,354.727692 1300.898193,358.075470 1299.528198,361.169556 
	C1295.630371,369.971008 1291.689941,378.759033 1288.079224,387.678955 
	C1286.833496,390.756470 1286.647705,394.246124 1285.734497,397.478851 
	C1283.912109,403.930847 1281.354126,410.232483 1280.165649,416.789398 
	C1279.058105,422.901184 1279.024048,429.265381 1279.060425,435.515289 
	C1279.153320,451.451080 1277.913696,467.480164 1281.966919,483.191193 
	C1282.847290,486.603485 1283.075928,490.191315 1284.046509,493.571411 
	C1285.852661,499.861084 1288.067139,506.032257 1289.959106,512.298828 
	C1292.584595,520.994019 1295.186157,529.628357 1300.962769,536.969604 
	C1304.314697,541.229248 1306.433472,546.633545 1310.279419,550.289551 
	C1316.160156,555.879578 1320.907227,562.476990 1328.387939,566.868164 
	C1332.754028,569.430908 1337.348511,572.309753 1341.872559,574.897705 
	C1345.416626,576.925049 1350.010498,577.193298 1353.415405,579.372070 
	C1360.206787,583.718018 1368.101318,584.037231 1375.319092,584.576843 
	C1385.141846,585.311340 1395.182739,586.159119 1405.290771,583.340332 
	C1412.370117,581.366150 1419.604004,579.996277 1426.409302,577.040161 
	C1428.306396,576.216125 1430.324707,575.670959 1433.120728,574.975342 
M1158.493652,381.066345 
	C1156.402710,384.697662 1154.542114,388.489990 1152.150879,391.911346 
	C1150.089355,394.860931 1146.300415,397.014008 1145.247559,400.175995 
	C1142.687622,407.863800 1136.755005,413.191345 1132.879395,419.914459 
	C1129.510010,425.759613 1124.955200,430.914581 1121.017822,436.441101 
	C1116.102783,443.339722 1111.253296,450.285522 1106.432617,457.250458 
	C1102.568359,462.833557 1098.813354,468.492065 1094.966187,474.087097 
	C1090.683594,480.315399 1086.282471,486.463196 1082.062256,492.733032 
	C1078.384033,498.197601 1074.339355,503.520233 1071.504639,509.410065 
	C1069.686523,513.187439 1069.194458,517.867859 1069.105957,522.164124 
	C1068.821411,535.987549 1068.989624,549.820557 1069.004639,563.649841 
	C1069.011475,569.920105 1076.709229,575.927490 1082.648438,573.864197 
	C1085.995361,572.701599 1088.849121,570.193909 1092.088867,568.631958 
	C1096.995117,566.266541 1101.942749,563.914429 1107.059814,562.078247 
	C1112.615845,560.084473 1118.325684,558.425598 1124.078613,557.097900 
	C1131.118408,555.473267 1138.242310,553.420837 1145.383423,553.186829 
	C1162.022461,552.641663 1178.726440,552.255737 1195.276001,555.002991 
	C1195.599609,555.056702 1195.948975,555.014099 1196.253906,555.114685 
	C1202.169312,557.067017 1207.964478,560.114197 1214.016968,560.761597 
	C1224.909180,561.926697 1234.024658,566.847046 1243.155273,572.015137 
	C1251.291382,576.620239 1260.063477,572.754700 1259.791870,563.569580 
	C1259.364258,549.104431 1262.006836,534.575012 1258.229004,520.103516 
	C1256.705688,514.267944 1253.377808,511.383270 1248.669922,508.996796 
	C1245.060791,507.167236 1241.543457,505.115601 1237.815308,503.573303 
	C1233.555176,501.810852 1229.179199,500.223938 1224.721680,499.070801 
	C1219.588501,497.742889 1214.153564,497.462036 1209.134277,495.843445 
	C1201.974609,493.534546 1194.684937,492.391785 1187.270752,492.066315 
	C1180.243652,491.757812 1173.192505,492.000000 1165.734619,492.000000 
	C1168.762085,487.209167 1171.225708,483.027039 1173.968994,479.037140 
	C1177.877075,473.353027 1181.426880,467.264740 1186.173462,462.359161 
	C1190.982056,457.389618 1191.595581,449.613037 1197.999023,445.961395 
	C1198.448975,445.704773 1198.683594,445.045258 1198.981201,444.550659 
	C1201.700317,440.030365 1204.255249,435.401703 1207.166870,431.009399 
	C1210.256958,426.347900 1213.737549,421.947052 1216.934326,417.353516 
	C1218.088013,415.695831 1218.657104,413.593781 1219.940186,412.071259 
	C1222.770386,408.712585 1226.876465,406.060974 1228.662964,402.272522 
	C1231.750122,395.726227 1235.666870,390.039185 1240.755859,385.032379 
	C1241.163208,384.631622 1241.677246,384.294922 1241.962158,383.820618 
	C1244.726440,379.215332 1247.107788,374.331268 1250.291870,370.041626 
	C1253.124878,366.225159 1255.171753,362.553467 1255.070312,357.598846 
	C1254.845215,346.606659 1255.005249,335.606689 1254.997803,324.609894 
	C1254.994263,319.433350 1251.578247,316.003754 1246.417236,316.002380 
	C1224.756836,315.996674 1203.096558,316.000000 1181.436157,316.000000 
	C1150.445190,316.000000 1119.454102,315.995850 1088.463135,316.003510 
	C1082.342163,316.005005 1079.001465,319.279602 1079.000610,325.224518 
	C1078.998657,337.720886 1078.998901,350.217224 1079.000488,362.713593 
	C1079.001343,368.735260 1082.278198,371.993286 1088.401367,371.995850 
	C1112.561035,372.005951 1136.720581,372.000000 1160.880249,372.000000 
	C1162.571411,372.000000 1164.262573,372.000000 1166.024536,372.000000 
	C1163.472534,375.414215 1161.401001,378.185760 1158.493652,381.066345 
M1123.379883,623.997986 
	C1126.407349,623.333496 1129.405029,622.335022 1132.467407,622.063599 
	C1144.548950,620.992432 1156.418091,623.231567 1168.332397,624.701111 
	C1170.451172,624.962402 1173.336914,624.330994 1174.565430,625.491394 
	C1178.329834,629.047119 1183.000366,632.350464 1182.038086,638.785583 
	C1181.191162,644.449280 1180.008423,650.179138 1180.158569,655.848389 
	C1180.388062,664.514465 1176.879150,672.187317 1174.726929,680.170532 
	C1172.474365,688.526550 1169.038696,696.570496 1165.989990,704.702087 
	C1164.258423,709.320251 1162.059570,713.769104 1160.445312,718.423950 
	C1158.582764,723.794617 1155.107056,728.682129 1155.912109,734.904114 
	C1156.338745,738.202759 1157.614746,739.679932 1160.925781,740.057129 
	C1166.313110,740.670959 1170.521851,738.428284 1174.088745,734.904480 
	C1177.059692,731.969421 1179.080566,727.856873 1182.410034,725.543579 
	C1190.395142,719.995544 1193.032837,710.705750 1198.728516,703.581299 
	C1202.415161,698.970032 1203.914673,692.639038 1206.560913,687.158997 
	C1208.900146,682.314636 1212.076904,677.789307 1213.801392,672.752563 
	C1216.649414,664.434021 1218.922607,655.884827 1220.881226,647.305725 
	C1222.642334,639.591431 1224.439819,631.739868 1224.776367,623.886902 
	C1225.110962,616.079895 1223.689575,608.191101 1222.889526,600.353394 
	C1222.820435,599.676514 1221.653442,599.097229 1220.973022,598.499390 
	C1212.847412,591.360413 1202.304443,590.543518 1192.507324,588.223755 
	C1186.187988,586.727539 1179.361328,586.937256 1172.777954,587.086853 
	C1159.793457,587.381897 1146.723511,586.588013 1133.918457,589.916199 
	C1129.523438,591.058472 1124.888550,591.250610 1120.390625,592.033630 
	C1117.183105,592.592102 1113.920532,593.121338 1110.860229,594.177917 
	C1104.822266,596.262512 1098.698608,598.281006 1092.992188,601.099609 
	C1084.931274,605.081177 1076.527954,608.878784 1070.602905,615.934448 
	C1069.065552,617.765137 1068.765625,621.462830 1069.371460,623.942749 
	C1069.713013,625.340820 1073.088379,626.888489 1075.049561,626.827698 
	C1080.257935,626.666504 1085.423462,625.347107 1090.636963,625.070679 
	C1101.215088,624.509949 1111.813477,624.333374 1123.379883,623.997986 
z"/>
<path fill="#FFFFFF" opacity="1.000000" stroke="none" 
	d="
M560.226074,314.001221 
	C570.832214,311.080200 581.253418,311.850281 591.582947,312.078430 
	C602.518982,312.319946 612.690430,315.574707 620.910217,322.983612 
	C626.875977,328.360779 632.338074,334.347656 637.607727,340.424286 
	C640.147156,343.352600 641.724670,347.115143 644.146912,351.187927 
	C649.091431,340.781403 656.211304,332.899963 664.238770,326.351379 
	C668.415100,322.944489 673.185791,319.233459 679.105103,317.849152 
	C683.596191,316.798859 687.757019,314.363647 692.100708,312.635040 
	C693.107605,312.234375 694.260010,312.032867 695.346985,312.026855 
	C704.013184,311.978851 712.700500,311.651428 721.336548,312.163361 
	C725.039917,312.382843 728.562012,314.958282 732.300293,315.454407 
	C737.910339,316.199005 742.013489,319.721802 746.826721,321.926117 
	C753.497070,324.981018 759.430786,328.583282 762.045837,335.941040 
	C762.184937,336.332458 762.517334,336.776917 762.878052,336.949646 
	C768.781128,339.776428 769.708679,345.370758 771.076721,350.936676 
	C772.752869,357.755920 775.021179,364.428131 776.928467,371.193512 
	C777.233826,372.276703 776.998718,373.514709 776.998718,374.681152 
	C777.000122,439.846313 777.000854,505.011475 776.998474,570.176636 
	C776.998291,575.715515 773.695801,578.997253 768.126892,578.998535 
	C751.293945,579.002502 734.460999,579.000366 717.628052,578.999878 
	C711.207397,578.999634 708.003723,575.833862 708.002808,569.435852 
	C707.997192,528.603455 708.000000,487.771057 708.000000,446.938660 
	C708.000000,432.105682 708.130981,417.271027 707.945984,402.440369 
	C707.850098,394.749390 705.824829,387.529480 699.256104,382.741302 
	C695.372070,379.910095 691.568909,377.151001 686.104553,376.638885 
	C682.492737,376.300354 679.097290,376.664551 675.801941,377.191223 
	C672.588013,377.704865 668.924072,379.087311 666.696899,381.322906 
	C662.068848,385.968475 656.858521,389.872101 654.693909,397.102692 
	C651.428040,408.011841 650.961853,418.885803 650.975708,430.008148 
	C651.033447,476.340332 651.000977,522.672607 650.998962,569.004883 
	C650.998718,575.817322 647.905518,578.999695 641.302917,578.999878 
	C624.969971,579.000305 608.636963,579.000061 592.304016,578.999939 
	C584.753723,578.999878 583.000854,577.269409 583.000671,569.795715 
	C582.999512,517.296936 583.101990,464.797607 582.833740,412.300201 
	C582.808350,407.339325 579.875305,402.453430 579.329773,397.420258 
	C578.615967,390.834961 575.012634,386.136475 570.899597,381.611969 
	C569.661499,380.249969 567.868896,378.831909 566.155579,378.566254 
	C560.895081,377.750702 556.752319,374.416626 550.064026,376.294189 
	C542.427307,378.438080 537.433228,382.262695 532.805847,387.717194 
	C531.327820,389.459351 529.777039,391.399414 529.100525,393.517487 
	C525.960999,403.346985 525.544067,413.506317 524.719788,423.778900 
	C520.763672,473.080231 524.308777,522.419067 522.872375,571.710205 
	C522.803162,574.086182 520.874573,576.408020 519.701050,578.999817 
	C500.745697,578.999817 481.759766,579.046631 462.774414,578.960938 
	C458.910767,578.943542 458.510376,575.186829 457.068359,572.721680 
	C456.632446,571.976440 457.000061,570.761169 457.000061,569.761169 
	C457.000031,488.929688 456.999603,408.098236 457.000641,327.266754 
	C457.000732,319.900970 460.751343,316.026978 468.025116,316.009705 
	C482.024719,315.976440 496.024506,315.975525 510.024109,316.010193 
	C517.127380,316.027802 520.998535,320.103210 520.999695,327.420685 
	C521.000916,334.554688 521.000000,341.688690 521.863464,349.170868 
	C522.908325,347.540405 523.992432,345.933563 524.989075,344.274139 
	C526.615967,341.565216 527.362244,338.642334 530.443115,336.466797 
	C533.624817,334.220001 534.741333,329.083649 537.900940,326.762909 
	C543.615723,322.565491 550.179260,319.524231 556.384705,315.993805 
	C557.524414,315.345398 558.646912,314.666840 560.226074,314.001221 
z"/>
<path fill="#FFFFFF" opacity="1.000000" stroke="none" 
	d="
M910.981201,365.963593 
	C905.416626,369.176575 898.457031,371.239441 895.653748,375.836731 
	C892.497070,381.013458 887.849426,386.293976 887.938416,393.310303 
	C887.992126,397.547577 880.504333,401.443054 876.803955,399.412903 
	C876.133240,399.044922 875.219055,399.044098 874.411865,399.013275 
	C865.161560,398.659912 855.900146,398.499023 846.662903,397.937622 
	C841.171692,397.603851 835.644531,397.003174 830.267456,395.880920 
	C824.501221,394.677399 821.149841,384.197327 824.142273,378.915039 
	C825.590576,376.358429 826.112366,373.266479 826.985229,370.396088 
	C830.070801,360.249664 833.994263,350.610382 841.945801,343.085480 
	C845.856812,339.384338 848.997131,334.754791 853.246460,331.554840 
	C858.235474,327.797821 863.929260,324.896271 869.544373,322.075623 
	C874.249207,319.712250 879.305542,318.057495 884.162048,315.985443 
	C895.573608,311.116577 907.601990,310.926483 919.720581,310.898163 
	C923.359802,310.889679 927.038879,308.930542 930.625793,309.138611 
	C941.202393,309.752228 952.025085,309.861145 962.202759,312.382477 
	C969.769348,314.256927 977.367004,317.111084 984.634766,321.098602 
	C990.408936,324.266632 996.713928,327.050812 1001.746033,331.191589 
	C1006.861023,335.400665 1010.454712,341.366516 1014.423279,346.851074 
	C1018.572571,352.585358 1019.483887,358.620605 1020.997437,364.821442 
	C1021.833435,368.246613 1022.567383,371.725891 1022.965698,375.224243 
	C1027.583740,415.786346 1023.548645,456.502441 1025.247925,497.106476 
	C1025.455566,502.069641 1027.617310,507.229828 1029.912231,512.238953 
	C1032.937378,518.841919 1036.556763,524.317871 1041.505249,529.484375 
	C1043.705078,531.781128 1044.308350,535.930725 1044.902222,539.366211 
	C1045.789917,544.501526 1041.054077,551.168030 1036.093750,553.071899 
	C1034.552612,553.663452 1033.322510,555.095459 1031.987183,556.187988 
	C1027.992920,559.455627 1023.958069,562.678223 1020.068298,566.066650 
	C1018.839172,567.137390 1018.238281,568.962708 1016.965271,569.943237 
	C1013.696960,572.460266 1009.120300,574.004089 1007.082764,577.215942 
	C1004.337708,581.543396 1000.950378,580.848389 997.241028,581.021973 
	C990.367554,581.343506 986.235535,576.615051 981.998718,572.495544 
	C977.993103,568.600891 974.469543,564.171875 971.029785,559.747925 
	C968.887451,556.992798 967.294495,553.810486 965.581604,551.025757 
	C957.440491,558.021729 949.994202,565.107300 941.793030,571.172058 
	C937.828125,574.104004 932.441956,575.110596 927.705078,577.003235 
	C924.730164,578.191772 921.768677,579.413696 918.793884,580.602478 
	C918.343811,580.782349 917.858215,580.953613 917.381897,580.975952 
	C902.747192,581.662109 888.105164,582.880493 873.479736,582.707336 
	C868.186035,582.644653 862.923828,579.265564 857.663940,577.353882 
	C855.717529,576.646545 853.878906,575.383179 851.888184,575.101929 
	C842.890991,573.830933 836.749084,567.333862 832.378601,561.041504 
	C828.178284,554.994202 823.387512,549.021057 820.600891,541.486633 
	C814.412903,524.756042 815.478882,507.684570 816.488281,490.833252 
	C816.987427,482.499542 818.743103,473.274109 824.403625,465.746582 
	C828.157654,460.754364 830.627319,454.808960 834.251282,449.701355 
	C836.277649,446.845459 839.245117,444.463501 842.209106,442.504120 
	C850.265564,437.178375 858.369812,431.871063 866.821960,427.223511 
	C870.354736,425.280975 874.832520,425.088684 878.850037,423.988800 
	C885.936523,422.048767 892.999329,420.022186 900.073730,418.037628 
	C900.229919,417.993805 900.406372,418.027832 900.571838,418.010742 
	C907.041870,417.341553 913.510376,416.657318 919.981995,416.003632 
	C926.784302,415.316559 933.614929,414.844635 940.384766,413.923096 
	C945.008484,413.293762 949.549133,412.054626 954.991821,410.905548 
	C954.991821,404.523651 955.953003,396.945526 954.753540,389.726349 
	C953.181396,380.264038 948.232483,372.114044 939.852356,366.752655 
	C937.652954,365.345551 934.875854,364.282318 932.301392,364.131317 
	C925.990967,363.761169 919.642761,363.960083 913.313599,364.101562 
	C912.669312,364.115936 912.051025,365.294067 910.981201,365.963593 
M944.041626,512.700195 
	C955.548401,494.996582 955.916077,475.278931 954.688904,455.041290 
	C943.190186,455.017365 932.045471,454.463287 921.127625,458.806824 
	C915.067200,461.217865 908.267334,462.268707 903.223755,466.514862 
	C894.453979,473.898071 888.861084,483.434998 888.108826,495.095123 
	C887.755676,500.569275 887.045227,506.240112 889.936951,511.527130 
	C891.392944,514.189209 891.540894,517.781067 893.433289,519.943420 
	C896.892944,523.896790 900.837952,527.715454 905.295105,530.406738 
	C908.409180,532.287109 913.154419,533.657959 916.392761,532.679871 
	C922.922119,530.707642 929.286743,527.535339 935.006897,523.774475 
	C938.665222,521.369080 941.047974,517.023560 944.041626,512.700195 
z"/>
<path fill="#FFFFFF" opacity="1.000000" stroke="none" 
	d="
M219.560211,566.243286 
	C213.749939,566.289673 212.441803,560.922119 210.354858,558.049805 
	C205.668839,551.600342 202.580444,543.961365 199.111908,536.677917 
	C198.318542,535.011963 198.881393,532.753479 198.371780,530.890259 
	C195.418564,520.093079 195.674973,509.046234 196.135162,498.071442 
	C196.404251,491.654144 197.302689,485.074890 199.203903,478.968872 
	C201.003357,473.189484 204.221344,467.780914 207.304214,462.494232 
	C209.815353,458.188019 212.868500,454.156860 216.015579,450.274689 
	C218.831741,446.800751 221.796432,443.312958 225.259949,440.534851 
	C228.922531,437.597015 233.194672,435.390045 237.305359,433.047729 
	C241.829849,430.469666 246.410309,427.969055 251.102127,425.717590 
	C252.608398,424.994781 254.575195,425.299683 256.281128,424.912994 
	C263.311340,423.319275 270.432678,422.001709 277.311646,419.899261 
	C285.455872,417.410034 293.872437,417.089417 302.086456,415.600525 
	C308.489075,414.439941 314.758698,414.576843 321.061890,413.901917 
	C325.511932,413.425385 329.866302,412.055115 334.998108,410.921570 
	C334.998108,403.540771 336.038940,395.104767 334.732666,387.049347 
	C333.126465,377.144073 326.645905,370.250183 317.268890,365.856781 
	C309.336395,362.140198 300.789124,362.976624 293.452393,364.616577 
	C286.392426,366.194641 280.014221,372.202179 274.180725,377.240875 
	C271.684906,379.396667 271.293182,384.016418 270.011169,387.540497 
	C268.998016,390.325470 268.838989,393.912170 266.950623,395.772125 
	C264.153442,398.527069 260.879150,402.663361 255.812378,399.050476 
	C255.477859,398.811981 254.833649,399.019775 254.334412,398.998474 
	C246.582657,398.667725 238.821182,398.479370 231.082367,397.956177 
	C224.264175,397.495270 217.447739,396.835632 210.675262,395.929382 
	C205.824738,395.280334 201.923218,385.260468 204.273697,380.905029 
	C205.607162,378.434143 206.107697,375.511719 206.967636,372.787750 
	C208.651703,367.453094 209.919571,361.937744 212.148895,356.842468 
	C213.567032,353.601257 216.429245,350.999146 218.600281,348.078064 
	C220.689774,345.266663 222.297791,341.930237 224.863434,339.672180 
	C231.715805,333.641327 238.111801,327.312836 247.043335,323.558105 
	C253.546997,320.823975 260.395569,318.812866 266.622101,315.734100 
	C277.062286,310.571899 287.917847,311.510315 298.792053,310.929260 
	C303.286133,310.689117 307.777222,308.920715 312.201843,309.150940 
	C322.281464,309.675507 332.643799,309.777069 342.290222,312.325592 
	C353.868439,315.384521 365.094757,319.784180 375.619232,326.320282 
	C381.880280,330.208649 385.748993,335.985321 391.001648,340.484283 
	C395.281586,344.150024 396.724915,351.342133 398.927948,357.159241 
	C401.242584,363.271240 403.023163,369.590179 404.895630,375.860931 
	C405.262268,377.088745 404.997650,378.509796 404.997772,379.841705 
	C405.000580,417.337677 404.723389,454.837372 405.233063,492.326416 
	C405.335144,499.835205 407.543549,507.364014 411.385651,514.482178 
	C414.374237,520.019104 417.818878,524.858093 421.657288,529.731140 
	C423.844330,532.507690 424.105957,536.885315 424.960724,540.604919 
	C425.972198,545.006348 422.915253,547.357971 420.054291,549.929871 
	C412.830109,556.424194 405.827667,563.164673 398.626587,569.685303 
	C394.480927,573.439270 390.232117,577.098999 385.822784,580.535522 
	C382.467499,583.150513 374.300964,581.965332 370.816376,579.024048 
	C368.694702,577.233154 365.856964,576.234131 363.912445,574.303650 
	C361.316956,571.726990 359.285797,568.583740 356.993042,565.699158 
	C355.996979,564.446045 354.937622,563.243286 353.933868,561.996094 
	C351.237762,558.646301 348.556152,555.284851 346.281067,552.442932 
	C340.402618,556.745483 332.905762,560.674561 327.560272,566.558289 
	C321.527679,573.198303 313.347992,574.810791 306.202637,578.698975 
	C302.850677,580.522949 298.232544,579.839050 294.449310,581.084656 
	C281.768677,585.259644 268.808899,582.238647 256.006042,582.781494 
	C251.930283,582.954407 247.717331,580.638123 243.618149,579.304077 
	C239.527405,577.972778 235.551636,576.273438 231.432556,575.047668 
	C226.483704,573.574951 222.477509,571.028442 219.560211,566.243286 
M309.499939,457.000000 
	C305.075500,458.312561 300.669067,459.690186 296.221710,460.919830 
	C291.545624,462.212646 287.832489,464.698456 283.834686,467.608978 
	C277.480621,472.234863 272.733765,476.897675 271.969055,484.905975 
	C271.901123,485.617493 271.389282,486.277832 271.141754,486.982391 
	C269.243958,492.385193 266.904327,497.862549 268.138245,503.650208 
	C269.228973,508.766418 271.141663,513.736572 273.034332,518.638855 
	C273.837738,520.719788 275.225372,522.788757 276.880066,524.266907 
	C278.502472,525.716187 280.925415,526.222656 282.781525,527.464844 
	C290.211945,532.437439 292.698761,532.996399 300.433533,531.017517 
	C308.816925,528.872864 316.309235,525.296387 321.387299,517.886536 
	C329.174408,506.523621 335.121704,494.501984 335.011841,480.263702 
	C334.947021,471.862183 335.000000,463.459808 335.000000,453.999451 
	C326.254333,455.067200 318.338898,456.033600 309.499939,457.000000 
z"/>
<path fill="#FFFFFF" opacity="1.000000" stroke="none" 
	d="
M1597.000000,472.000000 
	C1597.000000,505.329254 1596.986206,538.158508 1597.015503,570.987732 
	C1597.019653,575.601624 1593.902344,577.242554 1590.379761,579.077515 
	C1583.741943,582.535217 1576.755249,580.678406 1569.941162,580.918152 
	C1560.620605,581.246094 1551.237305,581.527344 1541.965454,580.779419 
	C1537.272827,580.400879 1531.453003,580.114746 1529.274170,574.070496 
	C1528.829712,572.837219 1528.053711,571.590332 1528.052734,570.349243 
	C1527.994263,489.526031 1527.993896,408.702759 1528.011230,327.879486 
	C1528.012695,321.251862 1531.333984,318.000275 1537.868652,318.000122 
	C1553.366699,317.999725 1568.864868,317.999725 1584.362915,318.000122 
	C1590.583008,318.000275 1592.993896,320.472900 1592.998779,326.874390 
	C1593.004395,334.206818 1592.982788,341.539307 1593.015381,348.871582 
	C1593.021362,350.231995 1593.227783,351.591583 1593.420654,353.895935 
	C1600.294678,342.048035 1606.602905,330.989471 1617.005005,323.404297 
	C1623.137451,318.932648 1629.842285,315.685699 1637.556641,313.660461 
	C1648.492188,310.789581 1659.260010,312.511932 1670.062866,312.204926 
	C1675.608887,312.047363 1681.122192,314.173462 1686.067017,317.261292 
	C1690.305786,319.908203 1694.787598,322.165009 1699.154053,324.608215 
	C1703.923218,327.276642 1707.494385,330.887390 1710.276245,335.782654 
	C1711.570557,338.060150 1713.922241,339.872314 1715.043457,342.648834 
	C1717.257446,348.131958 1719.653931,353.404419 1721.350098,359.216125 
	C1725.894897,374.788452 1725.990601,390.525146 1725.994751,406.388092 
	C1726.008911,460.881317 1726.000977,515.374512 1725.999023,569.867737 
	C1725.998779,578.930054 1723.952026,580.999634 1715.019653,580.999817 
	C1699.521606,581.000183 1684.023438,581.004761 1668.525391,580.997314 
	C1663.348389,580.994812 1658.002930,575.651184 1658.002563,570.473755 
	C1657.998291,521.146545 1657.978882,471.819305 1658.019653,422.492157 
	C1658.026978,413.660919 1657.489014,405.119446 1654.284668,396.580536 
	C1652.086548,390.722839 1650.989746,384.685272 1645.440796,380.864838 
	C1643.652466,379.633545 1642.073975,377.936279 1640.118896,377.147766 
	C1637.474487,376.081177 1634.499512,374.956085 1631.775391,375.180542 
	C1628.127441,375.481079 1624.177979,376.375305 1621.092041,378.233643 
	C1616.586548,380.946991 1612.259277,384.319519 1608.765015,388.224457 
	C1606.328857,390.946747 1604.953247,394.900238 1603.916138,398.535492 
	C1601.487305,407.048584 1599.982300,415.744446 1598.505737,424.508118 
	C1595.848511,440.279205 1598.147949,455.884247 1597.000000,472.000000 
z"/>
<path fill="#F2941B" opacity="1.000000" stroke="none" 
	d="
M1029.016113,683.997681 
	C1039.451416,680.540527 1049.683105,677.172668 1060.106445,674.572388 
	C1068.035278,672.594421 1075.557251,670.026733 1082.896973,666.331238 
	C1088.193726,663.664246 1094.496460,663.080261 1100.122437,660.961121 
	C1107.567993,658.156555 1114.873169,654.937439 1122.086548,651.570312 
	C1129.813232,647.963379 1137.980713,646.862671 1146.102905,648.367615 
	C1149.470459,648.991638 1152.348877,652.142273 1153.170898,656.807861 
	C1154.940918,666.852783 1148.979248,672.044617 1142.053955,676.914246 
	C1137.858643,679.864075 1133.582886,682.708252 1129.246582,685.446655 
	C1124.538696,688.419678 1119.731445,691.237000 1114.943970,694.082336 
	C1107.392456,698.570251 1099.904175,703.173645 1092.230469,707.443481 
	C1086.678711,710.532654 1080.897461,713.217224 1075.169067,715.979797 
	C1067.691772,719.585938 1060.261230,723.314209 1052.633057,726.574890 
	C1045.396606,729.667969 1037.942993,732.256470 1030.564087,735.011353 
	C1020.959534,738.597046 1011.395630,742.307800 1001.691772,745.604187 
	C997.090454,747.167297 992.162292,747.739136 987.458679,749.036926 
	C981.069092,750.799744 974.757385,752.843567 968.402771,754.734924 
	C965.749390,755.524658 963.109741,756.440247 960.397766,756.939392 
	C950.772644,758.711121 941.118469,760.324646 931.476440,762.004700 
	C923.759033,763.349426 916.041687,764.694458 908.327576,766.058167 
	C904.798462,766.682068 901.297974,767.514099 897.748047,767.963745 
	C891.415710,768.765930 884.617981,768.161682 878.809326,770.301819 
	C870.009399,773.543945 861.063843,772.083313 852.335693,772.638489 
	C833.749390,773.820679 815.034668,773.124756 796.374695,772.958130 
	C782.944031,772.838257 769.493286,772.697754 756.097534,771.844238 
	C749.053345,771.395386 742.109985,769.384644 735.115051,768.112610 
	C734.305908,767.965393 733.452942,768.079224 732.628540,767.992859 
	C726.337341,767.333618 720.010376,766.897217 713.767212,765.924866 
	C704.495239,764.480713 695.216797,762.947083 686.067810,760.888428 
	C679.611633,759.435669 673.415283,756.865356 667.011292,755.132996 
	C661.044312,753.518982 654.879883,752.619507 648.941223,750.920288 
	C641.937500,748.916199 635.106140,746.317871 628.157654,744.110718 
	C620.440491,741.659424 612.528076,739.747986 604.971436,736.886719 
	C596.879395,733.822754 589.097534,729.937500 581.198059,726.371277 
	C580.545166,726.076538 579.998596,725.050903 579.453186,725.089050 
	C573.164246,725.528687 568.933716,721.145508 563.857849,718.700684 
	C558.690796,716.211914 553.183716,714.421936 548.048218,711.876709 
	C542.346191,709.050659 536.882324,705.740723 531.343506,702.590820 
	C529.399780,701.485413 527.603821,700.112549 525.632385,699.065002 
	C519.525757,695.820374 513.353760,692.699097 507.236115,689.474915 
	C505.099304,688.348694 502.962036,687.186584 500.971344,685.826599 
	C493.526825,680.740906 486.263031,675.381531 478.705078,670.473389 
	C469.739624,664.651245 460.704865,659.044434 452.797363,651.685181 
	C446.538452,645.860229 439.932373,640.161133 432.660583,635.761108 
	C428.030060,632.959290 424.528595,629.772217 421.625122,625.459412 
	C421.087402,624.660706 419.654388,624.435242 418.606873,624.013977 
	C411.447449,621.135010 408.317963,612.554565 412.085022,606.092712 
	C413.504486,603.657837 420.410492,601.904846 422.834198,603.600952 
	C430.771606,609.155579 440.334259,611.574829 448.149170,617.681091 
	C453.638245,621.970032 460.971710,623.865784 467.403839,626.990356 
	C472.811829,629.617371 478.060059,632.573975 483.473419,635.189148 
	C486.111481,636.463562 489.022827,637.161438 491.707794,638.351807 
	C496.083374,640.291870 500.335968,642.509583 504.711975,644.448608 
	C509.841400,646.721497 515.049500,648.816467 520.219482,650.998230 
	C524.926819,652.984741 529.575195,655.124634 534.346375,656.942993 
	C540.736511,659.378235 547.256836,661.471313 553.653198,663.891235 
	C560.416931,666.450317 567.002502,669.513184 573.848572,671.811890 
	C579.986572,673.872925 586.416626,675.046143 592.637085,676.884277 
	C598.875671,678.727722 604.930847,681.231812 611.218201,682.860535 
	C619.034546,684.885376 627.049744,686.132690 634.898804,688.044800 
	C641.999023,689.774536 648.948914,692.120117 656.047180,693.859009 
	C660.313599,694.904114 664.726807,695.382507 669.092285,695.983459 
	C676.863770,697.053223 684.655762,697.975098 692.425903,699.054138 
	C696.299622,699.592041 700.179016,700.183594 703.993042,701.032654 
	C708.915710,702.128601 713.773315,703.515747 718.665344,704.752014 
	C719.296570,704.911560 719.967102,704.911987 720.617920,704.997803 
	C725.613464,705.656433 730.592773,706.496704 735.607300,706.939819 
	C744.776978,707.750305 754.050476,707.767090 763.131531,709.117554 
	C781.590698,711.862610 800.114502,710.829407 818.619385,710.972656 
	C837.141602,711.115967 855.748657,712.012817 874.148926,710.506836 
	C881.648254,709.893127 889.221802,709.672119 896.733398,708.965149 
	C902.275269,708.443604 907.804932,707.749695 913.318359,706.977783 
	C922.378174,705.709351 931.559814,704.907349 940.433228,702.817810 
	C950.540833,700.437622 960.707336,699.087524 970.973083,697.792358 
	C978.607300,696.829285 985.968872,693.850037 993.524292,692.077637 
	C1001.533386,690.198792 1009.633667,688.710876 1017.683044,686.999878 
	C1021.433838,686.202698 1025.158325,685.281860 1029.016113,683.997681 
z"/>
<path fill="#FFFFFF" opacity="1.000000" stroke="none" 
	d="
M1432.704102,574.986633 
	C1430.324707,575.670959 1428.306396,576.216125 1426.409302,577.040161 
	C1419.604004,579.996277 1412.370117,581.366150 1405.290771,583.340332 
	C1395.182739,586.159119 1385.141846,585.311340 1375.319092,584.576843 
	C1368.101318,584.037231 1360.206787,583.718018 1353.415405,579.372070 
	C1350.010498,577.193298 1345.416626,576.925049 1341.872559,574.897705 
	C1337.348511,572.309753 1332.754028,569.430908 1328.387939,566.868164 
	C1320.907227,562.476990 1316.160156,555.879578 1310.279419,550.289551 
	C1306.433472,546.633545 1304.314697,541.229248 1300.962769,536.969604 
	C1295.186157,529.628357 1292.584595,520.994019 1289.959106,512.298828 
	C1288.067139,506.032257 1285.852661,499.861084 1284.046509,493.571411 
	C1283.075928,490.191315 1282.847290,486.603485 1281.966919,483.191193 
	C1277.913696,467.480164 1279.153320,451.451080 1279.060425,435.515289 
	C1279.024048,429.265381 1279.058105,422.901184 1280.165649,416.789398 
	C1281.354126,410.232483 1283.912109,403.930847 1285.734497,397.478851 
	C1286.647705,394.246124 1286.833496,390.756470 1288.079224,387.678955 
	C1291.689941,378.759033 1295.630371,369.971008 1299.528198,361.169556 
	C1300.898193,358.075470 1302.060425,354.727692 1304.121948,352.135376 
	C1308.258789,346.933533 1312.154297,340.775726 1317.649414,337.647339 
	C1322.499878,334.885986 1325.158936,330.070618 1330.021729,327.773682 
	C1333.911621,325.936279 1337.657104,323.785217 1341.582397,322.032227 
	C1346.402222,319.879700 1351.353516,318.023285 1356.228516,315.992035 
	C1372.235718,309.322205 1389.116455,311.797485 1405.513794,312.521149 
	C1412.579590,312.833008 1420.770874,314.580688 1427.346924,319.472961 
	C1430.336426,321.696960 1434.383423,322.476410 1437.902832,324.020294 
	C1439.941284,324.914490 1442.082764,325.764954 1443.828735,327.093903 
	C1447.329468,329.758270 1450.677856,332.642090 1453.927734,335.612183 
	C1457.577271,338.947754 1461.506226,342.125824 1464.494385,346.003754 
	C1469.523438,352.530090 1475.425049,358.534332 1478.104126,366.691162 
	C1478.801514,368.814423 1480.876709,370.457581 1481.743286,372.558716 
	C1483.382812,376.533936 1484.610840,380.679321 1485.999878,384.757355 
	C1487.493408,389.142487 1489.230225,393.465363 1490.391479,397.937256 
	C1491.561523,402.442963 1491.341675,407.463776 1493.199097,411.599426 
	C1495.748291,417.274872 1493.521484,423.270294 1495.216919,428.528168 
	C1498.812012,439.676636 1496.371948,450.879425 1496.830200,462.018311 
	C1497.094727,468.451172 1496.001587,475.013306 1494.897217,481.409821 
	C1493.616455,488.827972 1492.369019,496.390167 1489.799438,503.411255 
	C1486.817261,511.559998 1481.338989,518.876099 1478.937744,527.133362 
	C1476.635498,535.050110 1471.436279,540.646057 1466.860352,546.642578 
	C1461.662109,553.454468 1455.333740,559.550903 1448.803101,565.149292 
	C1444.171509,569.119751 1438.389282,571.747986 1432.704102,574.986633 
M1406.054688,522.575378 
	C1412.083618,517.614197 1415.881592,511.402496 1417.041626,503.583527 
	C1417.486084,500.587433 1418.392334,497.659393 1419.097168,494.702515 
	C1420.394531,489.259338 1422.681641,483.842804 1422.820801,478.371002 
	C1423.291016,459.891052 1423.164307,441.389404 1422.907593,422.901062 
	C1422.822266,416.757538 1421.655884,410.629089 1420.985718,404.493530 
	C1420.967651,404.328308 1421.002441,404.151947 1420.959351,403.995575 
	C1419.642578,399.225311 1418.143677,394.497223 1417.035767,389.679199 
	C1415.123657,381.365234 1410.994019,374.777985 1403.838867,369.851990 
	C1400.134644,367.301849 1395.159912,367.529907 1392.304443,365.551453 
	C1386.324707,361.408417 1380.787354,365.123779 1377.593750,366.877594 
	C1371.949341,369.977478 1366.035156,374.038818 1362.708130,380.894531 
	C1359.205322,388.112488 1356.300171,395.489349 1354.188232,403.097717 
	C1352.854370,407.903442 1353.078735,413.210846 1353.045898,418.296082 
	C1352.928589,436.454071 1352.922241,454.613800 1353.047607,472.771667 
	C1353.084961,478.190033 1353.077271,483.735626 1354.198364,488.986298 
	C1355.490967,495.040100 1357.843018,500.895508 1360.054932,506.715424 
	C1361.540283,510.623505 1363.502563,514.360107 1365.392090,518.102539 
	C1368.609619,524.474854 1374.490723,528.187622 1380.636353,530.493469 
	C1384.706299,532.020447 1390.087646,531.760925 1394.370117,530.526184 
	C1398.568237,529.315857 1402.118652,525.858887 1406.054688,522.575378 
z"/>
<path fill="#FFFFFF" opacity="1.000000" stroke="none" 
	d="
M1158.911499,381.011810 
	C1161.401001,378.185760 1163.472534,375.414215 1166.024536,372.000000 
	C1164.262573,372.000000 1162.571411,372.000000 1160.880249,372.000000 
	C1136.720581,372.000000 1112.561035,372.005951 1088.401367,371.995850 
	C1082.278198,371.993286 1079.001343,368.735260 1079.000488,362.713593 
	C1078.998901,350.217224 1078.998657,337.720886 1079.000610,325.224518 
	C1079.001465,319.279602 1082.342163,316.005005 1088.463135,316.003510 
	C1119.454102,315.995850 1150.445190,316.000000 1181.436157,316.000000 
	C1203.096558,316.000000 1224.756836,315.996674 1246.417236,316.002380 
	C1251.578247,316.003754 1254.994263,319.433350 1254.997803,324.609894 
	C1255.005249,335.606689 1254.845215,346.606659 1255.070312,357.598846 
	C1255.171753,362.553467 1253.124878,366.225159 1250.291870,370.041626 
	C1247.107788,374.331268 1244.726440,379.215332 1241.962158,383.820618 
	C1241.677246,384.294922 1241.163208,384.631622 1240.755859,385.032379 
	C1235.666870,390.039185 1231.750122,395.726227 1228.662964,402.272522 
	C1226.876465,406.060974 1222.770386,408.712585 1219.940186,412.071259 
	C1218.657104,413.593781 1218.088013,415.695831 1216.934326,417.353516 
	C1213.737549,421.947052 1210.256958,426.347900 1207.166870,431.009399 
	C1204.255249,435.401703 1201.700317,440.030365 1198.981201,444.550659 
	C1198.683594,445.045258 1198.448975,445.704773 1197.999023,445.961395 
	C1191.595581,449.613037 1190.982056,457.389618 1186.173462,462.359161 
	C1181.426880,467.264740 1177.877075,473.353027 1173.968994,479.037140 
	C1171.225708,483.027039 1168.762085,487.209167 1165.734619,492.000000 
	C1173.192505,492.000000 1180.243652,491.757812 1187.270752,492.066315 
	C1194.684937,492.391785 1201.974609,493.534546 1209.134277,495.843445 
	C1214.153564,497.462036 1219.588501,497.742889 1224.721680,499.070801 
	C1229.179199,500.223938 1233.555176,501.810852 1237.815308,503.573303 
	C1241.543457,505.115601 1245.060791,507.167236 1248.669922,508.996796 
	C1253.377808,511.383270 1256.705688,514.267944 1258.229004,520.103516 
	C1262.006836,534.575012 1259.364258,549.104431 1259.791870,563.569580 
	C1260.063477,572.754700 1251.291382,576.620239 1243.155273,572.015137 
	C1234.024658,566.847046 1224.909180,561.926697 1214.016968,560.761597 
	C1207.964478,560.114197 1202.169312,557.067017 1196.253906,555.114685 
	C1195.948975,555.014099 1195.599609,555.056702 1195.276001,555.002991 
	C1178.726440,552.255737 1162.022461,552.641663 1145.383423,553.186829 
	C1138.242310,553.420837 1131.118408,555.473267 1124.078613,557.097900 
	C1118.325684,558.425598 1112.615845,560.084473 1107.059814,562.078247 
	C1101.942749,563.914429 1096.995117,566.266541 1092.088867,568.631958 
	C1088.849121,570.193909 1085.995361,572.701599 1082.648438,573.864197 
	C1076.709229,575.927490 1069.011475,569.920105 1069.004639,563.649841 
	C1068.989624,549.820557 1068.821411,535.987549 1069.105957,522.164124 
	C1069.194458,517.867859 1069.686523,513.187439 1071.504639,509.410065 
	C1074.339355,503.520233 1078.384033,498.197601 1082.062256,492.733032 
	C1086.282471,486.463196 1090.683594,480.315399 1094.966187,474.087097 
	C1098.813354,468.492065 1102.568359,462.833557 1106.432617,457.250458 
	C1111.253296,450.285522 1116.102783,443.339722 1121.017822,436.441101 
	C1124.955200,430.914581 1129.510010,425.759613 1132.879395,419.914459 
	C1136.755005,413.191345 1142.687622,407.863800 1145.247559,400.175995 
	C1146.300415,397.014008 1150.089355,394.860931 1152.150879,391.911346 
	C1154.542114,388.489990 1156.402710,384.697662 1158.911499,381.011810 
z"/>
<path fill="#F2941B" opacity="1.000000" stroke="none" 
	d="
M1122.891724,623.998230 
	C1111.813477,624.333374 1101.215088,624.509949 1090.636963,625.070679 
	C1085.423462,625.347107 1080.257935,626.666504 1075.049561,626.827698 
	C1073.088379,626.888489 1069.713013,625.340820 1069.371460,623.942749 
	C1068.765625,621.462830 1069.065552,617.765137 1070.602905,615.934448 
	C1076.527954,608.878784 1084.931274,605.081177 1092.992188,601.099609 
	C1098.698608,598.281006 1104.822266,596.262512 1110.860229,594.177917 
	C1113.920532,593.121338 1117.183105,592.592102 1120.390625,592.033630 
	C1124.888550,591.250610 1129.523438,591.058472 1133.918457,589.916199 
	C1146.723511,586.588013 1159.793457,587.381897 1172.777954,587.086853 
	C1179.361328,586.937256 1186.187988,586.727539 1192.507324,588.223755 
	C1202.304443,590.543518 1212.847412,591.360413 1220.973022,598.499390 
	C1221.653442,599.097229 1222.820435,599.676514 1222.889526,600.353394 
	C1223.689575,608.191101 1225.110962,616.079895 1224.776367,623.886902 
	C1224.439819,631.739868 1222.642334,639.591431 1220.881226,647.305725 
	C1218.922607,655.884827 1216.649414,664.434021 1213.801392,672.752563 
	C1212.076904,677.789307 1208.900146,682.314636 1206.560913,687.158997 
	C1203.914673,692.639038 1202.415161,698.970032 1198.728516,703.581299 
	C1193.032837,710.705750 1190.395142,719.995544 1182.410034,725.543579 
	C1179.080566,727.856873 1177.059692,731.969421 1174.088745,734.904480 
	C1170.521851,738.428284 1166.313110,740.670959 1160.925781,740.057129 
	C1157.614746,739.679932 1156.338745,738.202759 1155.912109,734.904114 
	C1155.107056,728.682129 1158.582764,723.794617 1160.445312,718.423950 
	C1162.059570,713.769104 1164.258423,709.320251 1165.989990,704.702087 
	C1169.038696,696.570496 1172.474365,688.526550 1174.726929,680.170532 
	C1176.879150,672.187317 1180.388062,664.514465 1180.158569,655.848389 
	C1180.008423,650.179138 1181.191162,644.449280 1182.038086,638.785583 
	C1183.000366,632.350464 1178.329834,629.047119 1174.565430,625.491394 
	C1173.336914,624.330994 1170.451172,624.962402 1168.332397,624.701111 
	C1156.418091,623.231567 1144.548950,620.992432 1132.467407,622.063599 
	C1129.405029,622.335022 1126.407349,623.333496 1122.891724,623.998230 
z"/>
<path fill="#000000" opacity="1.000000" stroke="none" 
	d="
M944.022095,513.124023 
	C941.047974,517.023560 938.665222,521.369080 935.006897,523.774475 
	C929.286743,527.535339 922.922119,530.707642 916.392761,532.679871 
	C913.154419,533.657959 908.409180,532.287109 905.295105,530.406738 
	C900.837952,527.715454 896.892944,523.896790 893.433289,519.943420 
	C891.540894,517.781067 891.392944,514.189209 889.936951,511.527130 
	C887.045227,506.240112 887.755676,500.569275 888.108826,495.095123 
	C888.861084,483.434998 894.453979,473.898071 903.223755,466.514862 
	C908.267334,462.268707 915.067200,461.217865 921.127625,458.806824 
	C932.045471,454.463287 943.190186,455.017365 954.688904,455.041290 
	C955.916077,475.278931 955.548401,494.996582 944.022095,513.124023 
z"/>
<path fill="#000000" opacity="1.000000" stroke="none" 
	d="
M309.961670,457.000000 
	C318.338898,456.033600 326.254333,455.067200 335.000000,453.999451 
	C335.000000,463.459808 334.947021,471.862183 335.011841,480.263702 
	C335.121704,494.501984 329.174408,506.523621 321.387299,517.886536 
	C316.309235,525.296387 308.816925,528.872864 300.433533,531.017517 
	C292.698761,532.996399 290.211945,532.437439 282.781525,527.464844 
	C280.925415,526.222656 278.502472,525.716187 276.880066,524.266907 
	C275.225372,522.788757 273.837738,520.719788 273.034332,518.638855 
	C271.141663,513.736572 269.228973,508.766418 268.138245,503.650208 
	C266.904327,497.862549 269.243958,492.385193 271.141754,486.982391 
	C271.389282,486.277832 271.901123,485.617493 271.969055,484.905975 
	C272.733765,476.897675 277.480621,472.234863 283.834686,467.608978 
	C287.832489,464.698456 291.545624,462.212646 296.221710,460.919830 
	C300.669067,459.690186 305.075500,458.312561 309.961670,457.000000 
z"/>
<path fill="#000000" opacity="1.000000" stroke="none" 
	d="
M1406.003906,522.981689 
	C1402.118652,525.858887 1398.568237,529.315857 1394.370117,530.526184 
	C1390.087646,531.760925 1384.706299,532.020447 1380.636353,530.493469 
	C1374.490723,528.187622 1368.609619,524.474854 1365.392090,518.102539 
	C1363.502563,514.360107 1361.540283,510.623505 1360.054932,506.715424 
	C1357.843018,500.895508 1355.490967,495.040100 1354.198364,488.986298 
	C1353.077271,483.735626 1353.084961,478.190033 1353.047607,472.771667 
	C1352.922241,454.613800 1352.928589,436.454071 1353.045898,418.296082 
	C1353.078735,413.210846 1352.854370,407.903442 1354.188232,403.097717 
	C1356.300171,395.489349 1359.205322,388.112488 1362.708130,380.894531 
	C1366.035156,374.038818 1371.949341,369.977478 1377.593750,366.877594 
	C1380.787354,365.123779 1386.324707,361.408417 1392.304443,365.551453 
	C1395.159912,367.529907 1400.134644,367.301849 1403.838867,369.851990 
	C1410.994019,374.777985 1415.123657,381.365234 1417.035767,389.679199 
	C1418.143677,394.497223 1419.642578,399.225311 1420.959351,403.995575 
	C1421.002441,404.151947 1420.967651,404.328308 1420.985718,404.493530 
	C1421.655884,410.629089 1422.822266,416.757538 1422.907593,422.901062 
	C1423.164307,441.389404 1423.291016,459.891052 1422.820801,478.371002 
	C1422.681641,483.842804 1420.394531,489.259338 1419.097168,494.702515 
	C1418.392334,497.659393 1417.486084,500.587433 1417.041626,503.583527 
	C1415.881592,511.402496 1412.083618,517.614197 1406.003906,522.981689 
z"/>
</svg>